<?xml version="1.0" standalone="no"?>
<!DOCTYPE svg PUBLIC "-//W3C//DTD SVG 20010904//EN"
 "http://www.w3.org/TR/2001/REC-SVG-20010904/DTD/svg10.dtd">
<svg version="1.0" xmlns="http://www.w3.org/2000/svg"
 width="600.000000pt" height="600.000000pt" viewBox="0 0 600.000000 600.000000"
 preserveAspectRatio="xMidYMid meet">
<metadata>
Created by potrace 1.16, written by Peter Selinger 2001-2019
</metadata>
<g transform="translate(0.000000,600.000000) scale(0.100000,-0.100000)"
fill="#000000" stroke="none">
<path d="M0 3000 l0 -3000 3000 0 3000 0 0 3000 0 3000 -3000 0 -3000 0 0
-3000z m3112 2891 c111 -76 124 -228 28 -315 -50 -45 -77 -56 -139 -56 -210 0
-276 293 -86 382 56 26 150 21 197 -11z m-705 -186 c106 -57 168 -178 189
-362 8 -71 9 -70 -69 -49 -29 8 -79 17 -111 21 -81 9 -107 36 -141 150 -30 97
-58 135 -102 135 -20 0 -36 -10 -56 -35 -37 -46 -100 -87 -133 -87 -30 0 -73
38 -116 104 -23 38 -28 51 -19 62 18 22 104 55 183 71 112 22 126 23 229 21
83 -2 102 -6 146 -31z m1571 11 c82 -18 165 -51 183 -73 10 -11 4 -25 -27 -71
-21 -31 -54 -66 -73 -79 -31 -21 -35 -22 -70 -7 -20 8 -59 37 -86 64 -60 60
-91 65 -128 21 -14 -17 -30 -54 -37 -83 -17 -73 -46 -133 -75 -152 -14 -9 -53
-19 -87 -23 -35 -3 -80 -12 -102 -20 -68 -23 -70 -22 -62 55 21 208 111 348
244 382 50 13 230 5 320 -14z m-2224 -161 c18 -9 40 -29 50 -47 l19 -31 -34
-29 c-68 -57 -227 -158 -315 -200 -73 -35 -102 -43 -161 -46 -72 -4 -73 -4
-109 32 -20 20 -34 41 -32 48 5 15 447 264 492 277 45 13 54 13 90 -4z m2587
5 c29 -8 284 -146 457 -246 42 -25 42 -25 27 -54 -23 -45 -67 -63 -141 -58
-51 3 -82 14 -166 55 -107 54 -225 129 -292 186 l-39 33 17 33 c10 18 32 39
49 46 39 17 43 17 88 5z m-2134 -106 l17 -27 -81 -77 c-45 -42 -125 -114 -180
-159 -175 -147 -230 -174 -309 -153 -43 12 -124 58 -124 71 1 3 79 61 174 129
185 130 201 137 276 111 32 -12 33 -11 103 60 40 39 80 71 89 71 10 0 25 -12
35 -26z m1719 -45 c71 -70 74 -71 105 -60 73 25 89 19 270 -110 93 -67 171
-125 174 -129 6 -10 -60 -53 -104 -68 -79 -27 -133 -7 -269 101 -95 76 -304
264 -310 279 -6 14 27 58 44 58 9 0 49 -32 90 -71z m-1036 19 c16 -26 20 -51
20 -120 0 -132 -26 -181 -81 -153 -30 16 -77 79 -98 133 -12 28 -11 39 3 77
21 54 67 95 107 95 22 0 34 -8 49 -32z m345 -1 c45 -45 59 -98 39 -146 -23
-55 -65 -111 -95 -127 -24 -12 -30 -12 -51 5 -22 18 -23 26 -23 139 0 104 3
123 19 141 29 32 72 27 111 -12z m-210 -892 c0 -873 0 -880 -20 -880 -20 0
-20 8 -23 870 -1 479 0 876 3 883 3 8 13 12 22 10 17 -3 18 -53 18 -883z
m-746 706 c54 -38 53 -41 -68 -170 -158 -168 -173 -181 -223 -181 -36 0 -47 6
-90 49 -28 28 -47 55 -44 60 13 21 313 259 332 263 28 7 65 -1 93 -21z m1723
-113 c177 -145 173 -137 96 -202 -33 -28 -50 -36 -82 -36 -40 -1 -46 4 -183
146 -79 81 -143 152 -143 159 0 16 39 51 70 64 48 19 81 1 242 -131z m-2895
38 c21 -19 46 -48 56 -64 l17 -30 -52 -47 c-71 -62 -215 -160 -280 -190 -112
-52 -203 -15 -268 107 -25 47 -25 44 8 56 15 6 117 53 226 106 110 53 213 96
228 96 18 0 42 -12 65 -34z m4126 -80 l218 -105 -16 -31 c-25 -48 -86 -112
-122 -127 -18 -7 -48 -13 -67 -13 -64 0 -249 110 -367 218 l-52 48 32 47 c39
57 75 79 121 73 19 -2 133 -51 253 -110z m-2728 62 c14 -16 25 -34 25 -40 0
-13 -182 -269 -228 -319 -39 -45 -72 -55 -111 -35 -32 17 -81 71 -81 89 0 7
75 87 166 178 180 180 183 182 229 127z m1336 -240 l60 -67 -27 -36 c-55 -72
-111 -80 -162 -24 -46 51 -232 312 -232 324 0 19 40 66 64 75 18 7 37 -8 129
-98 60 -59 135 -137 168 -174z m-1036 163 c63 -36 93 -69 110 -117 16 -49 4
-78 -28 -68 -61 18 -157 131 -157 185 0 36 12 36 75 0z m472 -7 c-8 -49 -65
-124 -121 -158 -41 -26 -49 -28 -62 -15 -22 22 -7 73 35 120 39 44 105 87 135
88 16 1 18 -4 13 -35z m-1789 -89 c37 -12 80 -28 96 -34 l28 -11 -108 -77
c-60 -42 -161 -118 -225 -169 -139 -110 -149 -116 -205 -116 -56 0 -119 30
-168 81 l-38 38 234 162 c264 182 243 176 386 126z m1179 -2 c19 -45 8 -99
-33 -169 -36 -61 -71 -87 -108 -80 -30 6 -76 42 -76 58 0 18 172 228 187 228
8 0 21 -17 30 -37z m803 -69 c45 -58 83 -113 84 -122 1 -18 -58 -62 -85 -62
-31 0 -77 49 -110 116 -25 51 -31 72 -26 104 6 43 22 70 42 70 7 0 49 -48 95
-106z m1435 -56 l236 -161 -37 -38 c-48 -49 -112 -79 -170 -79 -57 0 -66 5
-194 105 -58 46 -156 117 -217 159 -62 43 -113 79 -113 81 0 14 207 94 242 95
10 0 124 -73 253 -162z m-3115 13 c28 -20 56 -63 65 -101 5 -22 -18 -48 -195
-225 l-200 -200 -48 0 c-61 0 -129 34 -199 99 l-56 52 279 202 c299 216 296
215 354 173z m2781 -173 l279 -202 -33 -34 c-76 -78 -192 -133 -251 -118 -16
4 -79 56 -150 124 -67 64 -154 148 -194 185 -41 40 -72 77 -72 88 0 26 27 89
48 113 16 17 66 45 85 46 5 0 134 -91 288 -202z m-2502 37 c27 -14 91 -89 91
-107 0 -15 -197 -281 -273 -368 -93 -107 -117 -125 -170 -124 -51 1 -100 25
-150 72 l-37 36 252 253 c139 139 254 253 256 253 2 0 16 -7 31 -15z m2166
-244 c266 -267 255 -248 176 -308 -54 -42 -111 -58 -155 -43 -34 11 -101 75
-183 176 -73 90 -223 301 -223 314 0 19 53 82 84 101 20 12 35 15 45 9 9 -5
124 -117 256 -249z m-520 152 c18 -21 126 -146 238 -278 l205 -240 -25 -27
c-14 -15 -48 -36 -76 -48 -58 -25 -102 -22 -147 10 -28 20 -178 236 -308 443
-59 93 -61 99 -47 121 19 29 67 53 108 55 10 1 34 -16 52 -36z m-1285 7 c49
-26 45 -40 -61 -206 -151 -237 -248 -372 -284 -394 -47 -29 -100 -25 -162 10
-29 17 -53 36 -53 43 0 6 28 44 63 83 34 38 142 161 240 272 158 179 181 202
208 202 17 0 39 -5 49 -10z m275 -25 c14 -13 25 -29 25 -35 0 -22 -93 -172
-116 -187 -19 -12 -38 -14 -82 -9 -31 4 -61 11 -66 16 -10 10 183 240 202 240
7 0 24 -11 37 -25z m749 -93 c53 -62 94 -117 91 -121 -7 -12 -108 -23 -138
-15 -20 4 -39 27 -77 94 -27 48 -50 92 -50 97 0 21 43 64 60 61 10 -2 61 -54
114 -116z m-632 -300 c18 -18 -1 -64 -45 -108 -57 -56 -131 -79 -238 -71 -94
6 -123 19 -116 53 2 13 -2 32 -9 41 -11 17 -15 16 -50 -12 -93 -76 -126 -214
-71 -307 66 -113 241 -197 618 -298 225 -60 302 -86 415 -142 284 -139 350
-336 192 -571 -41 -62 -190 -217 -208 -217 -12 0 -130 91 -130 99 0 3 34 40
76 81 100 100 144 185 144 279 -1 107 -41 173 -145 236 -76 45 -188 81 -445
140 -310 71 -436 123 -535 219 -65 65 -114 159 -122 240 -11 107 60 201 195
258 45 19 52 25 52 50 0 20 6 29 23 33 72 16 382 14 399 -3z m774 1 c12 -4 15
-14 11 -39 -5 -31 -3 -35 21 -40 100 -21 169 -75 197 -153 47 -136 -8 -277
-150 -380 -86 -63 -241 -141 -280 -141 -6 0 -42 17 -80 37 l-70 37 50 12 c128
30 231 90 324 190 148 158 147 274 -3 361 -30 17 -32 16 -31 -14 0 -23 -6 -29
-40 -39 -90 -28 -222 -12 -289 34 -39 26 -96 116 -83 129 17 16 95 22 244 17
89 -2 170 -7 179 -11z m-921 -880 c30 -15 55 -30 55 -34 0 -4 -11 -10 -25 -13
-92 -23 -165 -197 -125 -300 27 -72 135 -155 395 -306 206 -119 295 -181 368
-253 71 -71 97 -123 97 -197 0 -95 -65 -197 -180 -283 l-62 -47 -30 25 c-16
14 -33 25 -38 25 -4 0 11 28 34 63 51 76 76 151 76 227 0 48 -5 64 -31 100
-41 57 -69 81 -164 144 -92 61 -132 83 -267 142 -185 80 -331 191 -392 298
-76 131 -42 303 74 380 39 26 113 55 142 56 10 0 42 -12 73 -27z m350 -348 c0
-253 -1 -260 -20 -260 -19 0 -20 8 -23 250 -1 137 0 256 3 263 3 7 13 12 22
10 17 -3 18 -23 18 -263z m-277 -523 l51 -28 -28 -17 c-41 -24 -81 -109 -81
-171 0 -85 42 -130 274 -286 178 -120 263 -210 281 -297 9 -43 -10 -138 -40
-199 -27 -55 -104 -148 -105 -126 0 6 -9 21 -21 33 l-20 20 30 47 c42 66 71
132 71 165 0 15 -9 46 -21 68 -44 87 -128 156 -319 264 -187 105 -276 200
-295 311 -8 50 8 115 38 157 19 25 109 87 128 87 3 0 29 -13 57 -28z m98 -725
c-28 -37 -50 -120 -41 -156 10 -41 63 -109 181 -233 116 -121 165 -184 179
-228 18 -57 -1 -126 -48 -177 -26 -29 -31 -29 -51 2 -14 22 -15 29 -3 53 22
43 27 88 14 126 -27 79 -133 198 -260 293 -63 48 -113 124 -123 190 -8 53 19
112 83 183 l46 51 24 -36 24 -35 -25 -33z m42 -547 l23 -29 -21 -28 c-29 -40
-29 -93 1 -134 13 -19 59 -72 103 -119 110 -119 129 -154 110 -204 -8 -21 -24
-21 -24 0 0 9 -55 71 -123 137 -122 121 -155 167 -172 245 -10 47 2 96 31 132
32 37 43 37 72 0z"/>
</g>
</svg>
